HIERARCHY
ROOT Hips
{
	OFFSET 0.000000 0.000000 0.000000
	CHANNELS 6 Xposition Yposition Zposition Xrotation Yrotation Zrotation
	JOINT Chest
	{
		OFFSET 0.000000 0.009282 11.569106
		CHANNELS 6 Xposition Yposition Zposition Xrotation Yrotation Zrotation
		JOINT Chest2
		{
			OFFSET 0.000000 -0.016863 9.269641
			CHANNELS 6 Xposition Yposition Zposition Xrotation Yrotation Zrotation
			JOINT Chest3
			{
				OFFSET 0.000000 0.000000 8.374491
				CHANNELS 6 Xposition Yposition Zposition Xrotation Yrotation Zrotation
				JOINT Chest4
				{
					OFFSET 0.000000 0.000000 8.374493
					CHANNELS 6 Xposition Yposition Zposition Xrotation Yrotation Zrotation
					JOINT Neck
					{
						OFFSET 0.000000 -0.000001 12.152554
						CHANNELS 6 Xposition Yposition Zposition Xrotation Yrotation Zrotation
						JOINT Head
						{
							OFFSET 0.000000 -0.040100 7.802319
							CHANNELS 6 Xposition Yposition Zposition Xrotation Yrotation Zrotation
							End Site
							{
								OFFSET 0.000000 -0.020946 14.853096
							}
						}
					}
					JOINT RightCollar
					{
						OFFSET -2.894404 0.000000 6.791374
						CHANNELS 6 Xposition Yposition Zposition Xrotation Yrotation Zrotation
						JOINT RightShoulder
						{
							OFFSET -13.574684 0.000000 0.000000
							CHANNELS 6 Xposition Yposition Zposition Xrotation Yrotation Zrotation
							JOINT RightElbow
							{
								OFFSET -23.923903 0.000000 0.000000
								CHANNELS 6 Xposition Yposition Zposition Xrotation Yrotation Zrotation
								JOINT RightWrist
								{
									OFFSET -19.846718 -0.012765 0.000000
									CHANNELS 6 Xposition Yposition Zposition Xrotation Yrotation Zrotation
									End Site
									{
										OFFSET -14.973145 0.000000 0.000000
									}
								}
							}
						}
					}
					JOINT LeftCollar
					{
						OFFSET 2.894404 0.000000 6.791374
						CHANNELS 6 Xposition Yposition Zposition Xrotation Yrotation Zrotation
						JOINT LeftShoulder
						{
							OFFSET 13.574684 0.000000 0.000000
							CHANNELS 6 Xposition Yposition Zposition Xrotation Yrotation Zrotation
							JOINT LeftElbow
							{
								OFFSET 23.923903 0.000000 0.000000
								CHANNELS 6 Xposition Yposition Zposition Xrotation Yrotation Zrotation
								JOINT LeftWrist
								{
									OFFSET 19.846718 -0.012765 0.000000
									CHANNELS 6 Xposition Yposition Zposition Xrotation Yrotation Zrotation
									End Site
									{
										OFFSET 14.973145 0.000000 0.000000
									}
								}
							}
						}
					}
				}
			}
		}
	}
	JOINT RightHip
	{
		OFFSET -9.469263 -0.004642 0.045487
		CHANNELS 6 Xposition Yposition Zposition Xrotation Yrotation Zrotation
		JOINT RightKnee
		{
			OFFSET 0.000000 -0.002666 -40.478676
			CHANNELS 6 Xposition Yposition Zposition Xrotation Yrotation Zrotation
			JOINT RightAnkle
			{
				OFFSET 0.000000 -0.049110 -35.224068
				CHANNELS 6 Xposition Yposition Zposition Xrotation Yrotation Zrotation
				JOINT RightToe
				{
					OFFSET 0.000000 -12.539530 -6.151390
					CHANNELS 6 Xposition Yposition Zposition Xrotation Yrotation Zrotation
					End Site
					{
						OFFSET 0.000000 -5.044995 -1.291870
					}
				}
			}
		}
	}
	JOINT LeftHip
	{
		OFFSET 9.469263 -0.004642 0.045487
		CHANNELS 6 Xposition Yposition Zposition Xrotation Yrotation Zrotation
		JOINT LeftKnee
		{
			OFFSET 0.000000 -0.002666 -40.478676
			CHANNELS 6 Xposition Yposition Zposition Xrotation Yrotation Zrotation
			JOINT LeftAnkle
			{
				OFFSET 0.000000 -0.049110 -35.224068
				CHANNELS 6 Xposition Yposition Zposition Xrotation Yrotation Zrotation
				JOINT LeftToe
				{
					OFFSET 0.000000 -12.539530 -6.151390
					CHANNELS 6 Xposition Yposition Zposition Xrotation Yrotation Zrotation
					End Site
					{
						OFFSET 0.000000 -5.044995 -1.291870
					}
				}
			}
		}
	}
}
MOTION
Frames: 5
Frame Time: 0.016667
83.849686 -76.499084 83.205124 1.730904 3.686816 -112.216928 -0.000015 0.009284 11.569103 3.583983 0.528076 -0.076911 0.000003 -0.016867 9.269653 1.606032 0.238733 -0.159185 0.000000 0.000001 8.374482 1.606033 0.238733 -0.159186 -0.000005 -0.000004 8.374497 1.204460 0.179469 -0.118762 0.000004 -0.000014 12.152548 16.719330 -1.663344 -2.364375 0.000005 -0.040110 7.802306 -5.162063 -2.199367 -4.895121 -2.894406 -0.000006 6.791366 -4.408951 -9.716545 -1.589958 -13.574686 -0.000009 -0.000005 14.545144 -41.564218 -8.931745 -23.923897 0.000003 -0.000011 60.026974 4.366830 66.831263 -19.846708 -0.012757 -0.000004 -39.157748 22.008090 79.099635 2.894404 -0.000001 6.791368 -3.892381 7.627358 -4.564334 13.574687 -0.000008 -0.000006 3.442728 41.448180 14.167802 23.923903 -0.000014 0.000009 65.640830 20.165232 -59.288979 19.846712 -0.012773 0.000002 -15.506380 -15.075382 -57.044183 -9.469276 -0.004645 0.045480 10.952557 -2.786055 -9.750603 0.000079 -0.002838 -40.477730 20.453413 -5.772140 -1.678536 -0.000727 -0.049216 -35.223782 7.201981 -3.497740 15.669265 -0.000229 -12.539919 -6.152742 -32.470856 17.326831 5.219816 9.469254 -0.004646 0.045480 4.823516 7.717899 8.401862 -0.000102 -0.002662 -40.478634 0.797113 3.513302 2.165688 -0.000246 -0.049143 -35.224072 0.307771 -6.957968 5.420918 0.000012 -12.539534 -6.151382 0.029595 -0.037131 -0.119303 
83.837738 -76.507683 83.204910 1.751574 3.693388 -112.152218 0.000001 0.009279 11.569111 3.577864 0.514227 -0.035083 -0.000006 -0.016862 9.269650 1.601167 0.237779 -0.139916 -0.000005 0.000003 8.374487 1.601167 0.237779 -0.139914 0.000000 -0.000000 8.374494 1.200820 0.178702 -0.104317 -0.000001 -0.000012 12.152555 16.665313 -1.682874 -2.404746 -0.000001 -0.040093 7.802316 -5.262857 -2.218772 -4.976559 -2.894402 -0.000009 6.791375 -4.581814 -9.705360 -1.624809 -13.574679 -0.000007 -0.000004 14.262673 -41.055413 -9.817328 -23.923887 0.000008 -0.000014 60.313111 4.005514 67.577980 -19.846722 -0.012771 0.000009 -38.680731 22.023460 78.088132 2.894404 -0.000014 6.791371 -3.937610 7.631371 -4.585959 13.574680 -0.000014 -0.000019 3.127919 41.185972 14.714430 23.923904 -0.000008 0.000018 65.708646 20.240866 -59.392402 19.846716 -0.012755 -0.000004 -15.444000 -14.617267 -56.428431 -9.469264 -0.004650 0.045487 10.991989 -2.801120 -9.763883 0.000072 -0.002844 -40.477730 20.412826 -5.785033 -1.675493 -0.000718 -0.049225 -35.223778 7.228304 -3.540418 15.699352 -0.000236 -12.539926 -6.152741 -32.468308 17.381221 5.235754 9.469267 -0.004645 0.045487 4.843702 7.705208 8.406095 -0.000099 -0.002660 -40.478622 0.794954 3.514351 2.140700 -0.000240 -0.049133 -35.224075 0.325089 -6.947151 5.427127 0.000002 -12.539528 -6.151377 0.034831 -0.034504 -0.108478 
83.826714 -76.514931 83.201859 1.765957 3.703267 -112.098328 0.000001 0.009289 11.569114 3.579513 0.516982 0.003785 -0.000010 -0.016856 9.269637 1.600244 0.242317 -0.118590 0.000004 -0.000004 8.374489 1.600244 0.242317 -0.118587 -0.000002 0.000003 8.374495 1.200134 0.182050 -0.088299 0.000001 0.000004 12.152564 16.611995 -1.714084 -2.442408 0.000003 -0.040085 7.802305 -5.362928 -2.260370 -5.057198 -2.894406 0.000003 6.791373 -4.754954 -9.709414 -1.674452 -13.574689 0.000002 0.000007 14.155011 -40.571897 -10.498848 -23.923889 0.000003 -0.000004 60.607274 3.672150 68.255542 -19.846718 -0.012771 0.000016 -38.198857 22.013182 76.984503 2.894403 0.000002 6.791385 -3.960349 7.621704 -4.626462 13.574675 -0.000008 0.000004 2.957232 40.992166 15.144133 23.923906 0.000004 -0.000008 65.720777 20.349903 -59.479787 19.846725 -0.012762 -0.000005 -15.603692 -14.176280 -56.019197 -9.469265 -0.004639 0.045490 11.024788 -2.812019 -9.777412 0.000077 -0.002833 -40.477741 20.384228 -5.788270 -1.663659 -0.000731 -0.049223 -35.223785 7.253094 -3.552005 15.742159 -0.000234 -12.539912 -6.152757 -32.468537 17.417758 5.252033 9.469262 -0.004639 0.045493 4.868678 7.699361 8.416577 -0.000110 -0.002661 -40.478626 0.788453 3.512602 2.136548 -0.000239 -0.049115 -35.224079 0.335288 -6.939069 5.397502 0.000012 -12.539528 -6.151386 0.046380 -0.027205 -0.114072 
83.814789 -76.523048 83.197899 1.776092 3.723783 -112.057825 -0.000001 0.009283 11.569105 3.587238 0.536894 0.035347 0.000006 -0.016862 9.269652 1.602250 0.251593 -0.101897 0.000000 -0.000008 8.374495 1.602250 0.251593 -0.101896 -0.000009 0.000002 8.374501 1.201645 0.188963 -0.075761 0.000003 -0.000008 12.152551 16.566200 -1.752077 -2.471023 0.000004 -0.040118 7.802312 -5.449466 -2.317743 -5.123684 -2.894410 0.000001 6.791365 -4.909601 -9.727421 -1.719819 -13.574697 0.000004 0.000004 14.283206 -40.174370 -10.911006 -23.923899 -0.000012 -0.000002 60.780740 3.366446 68.844270 -19.846724 -0.012768 0.000009 -37.624073 21.968696 75.758471 2.894401 -0.000005 6.791373 -3.921278 7.603923 -4.702243 13.574689 -0.000009 0.000016 2.783808 40.850477 15.532228 23.923899 -0.000007 -0.000013 65.722320 20.512267 -59.594200 19.846729 -0.012764 -0.000007 -15.908325 -13.796157 -55.825380 -9.469270 -0.004633 0.045481 11.056686 -2.818730 -9.790919 0.000077 -0.002824 -40.477745 20.370322 -5.779700 -1.663122 -0.000722 -0.049223 -35.223782 7.263058 -3.641780 15.693340 -0.000239 -12.539912 -6.152762 -32.478595 17.457274 5.256655 9.469267 -0.004641 0.045480 4.901964 7.702077 8.433754 -0.000098 -0.002665 -40.478630 0.781121 3.515882 2.113302 -0.000255 -0.049139 -35.224091 0.348057 -6.932425 5.368399 0.000010 -12.539539 -6.151378 0.057376 -0.023899 -0.113949 
83.807091 -76.526703 83.193878 1.784340 3.756425 -112.031304 0.000004 0.009289 11.569098 3.605444 0.560955 0.063524 0.000002 -0.016855 9.269648 1.610037 0.264562 -0.088361 -0.000006 0.000001 8.374496 1.610037 0.264562 -0.088360 -0.000003 -0.000001 8.374494 1.207488 0.198656 -0.065572 0.000004 0.000003 12.152536 16.525853 -1.791138 -2.493316 0.000001 -0.040125 7.802315 -5.526021 -2.379459 -5.178980 -2.894397 0.000001 6.791364 -5.008831 -9.741751 -1.756611 -13.574687 0.000006 0.000001 14.503505 -39.876543 -11.121278 -23.923895 0.000014 -0.000001 60.846112 3.075656 69.378398 -19.846701 -0.012761 0.000003 -36.907132 21.848669 74.415772 2.894407 -0.000003 6.791363 -3.908481 7.575815 -4.787604 13.574690 -0.000013 0.000001 2.651552 40.803905 15.876746 23.923912 -0.000017 -0.000008 65.699754 20.671153 -59.729444 19.846714 -0.012776 0.000011 -16.197589 -13.564592 -55.813123 -9.469253 -0.004632 0.045483 11.085167 -2.811389 -9.791263 0.000079 -0.002843 -40.477737 20.382295 -5.777406 -1.678670 -0.000727 -0.049243 -35.223785 7.279798 -3.652095 15.738682 -0.000237 -12.539914 -6.152763 -32.492941 17.481389 5.262248 9.469269 -0.004631 0.045480 4.937504 7.710149 8.431813 -0.000099 -0.002669 -40.478634 0.784058 3.517938 2.095545 -0.000246 -0.049134 -35.224072 0.355231 -6.924806 5.406989 0.000002 -12.539537 -6.151381 0.069637 -0.018547 -0.116119 
